<svg width="550" height="550" viewBox="0 0 550 550" fill="none" xmlns="http://www.w3.org/2000/svg">
<circle cx="275" cy="275" r="275" fill="#6DB33F"/>
<path d="M162.903 224.781C161.362 228.575 159.228 232.25 156.738 235.57C134.687 212.688 98.2895 212.095 75.5264 234.147C52.7634 256.199 52.052 292.596 74.1037 315.359C74.8151 316.189 75.645 316.9 76.4749 317.612L78.6089 319.509C102.795 339.901 139.073 336.818 159.465 312.632C167.29 303.385 172.032 291.766 172.862 279.673C174.522 265.328 170.135 246.833 162.903 224.781ZM84.7739 318.204C83.1141 320.339 80.0316 320.576 77.8976 318.916C75.7635 317.256 75.5264 314.174 77.1862 312.039C78.846 309.905 81.9285 309.668 84.0626 311.328C86.078 312.988 86.4337 316.07 84.7739 318.204ZM162.548 301.014C148.439 319.864 118.089 313.462 98.7637 314.411C98.7637 314.411 95.3255 314.648 91.8874 315.122C91.8874 315.122 93.1915 314.529 94.8513 313.936C108.485 309.194 114.888 308.246 123.187 303.978C138.718 296.034 154.249 278.606 157.331 260.585C151.403 277.895 133.383 292.833 117.022 298.88C105.759 303.029 85.4853 307.06 85.4853 307.06L84.6554 306.586C70.9027 299.828 70.4284 269.952 95.5627 260.348C106.589 256.08 117.022 258.451 128.996 255.606C141.682 252.642 156.383 243.158 162.311 230.709C168.95 250.745 177.012 281.807 162.548 301.014Z" fill="white"/>
<path d="M191.463 298.168C189.922 297.22 188.973 295.56 189.092 293.781C189.092 290.936 191.345 288.565 194.19 288.565C194.19 288.565 194.19 288.565 194.309 288.565C195.257 288.565 196.205 288.802 197.035 289.276C201.778 292.596 207.35 294.374 213.041 294.611C218.494 294.611 221.695 292.24 221.695 288.565V288.328C221.695 283.941 215.767 282.518 209.247 280.503C201.066 278.132 191.819 274.812 191.819 264.142V263.905C191.819 253.353 200.592 246.951 211.618 246.951C217.783 247.07 223.711 248.611 229.164 251.456C231.061 252.405 232.247 254.183 232.247 256.317C232.247 259.163 229.876 261.534 227.03 261.534H226.912C226.082 261.534 225.252 261.297 224.422 260.941C220.391 258.688 216.005 257.384 211.381 257.147C206.401 257.147 203.556 259.518 203.556 262.601V262.838C203.556 266.987 209.602 268.647 216.123 270.781C224.304 273.271 233.433 277.065 233.433 287.024V287.261C233.433 298.998 224.304 304.807 212.804 304.807C205.216 304.689 197.747 302.436 191.463 298.168Z" fill="white"/>
<path d="M238.175 253.472C238.057 250.034 240.902 247.188 244.34 247.07H244.459C248.016 247.07 250.861 249.915 250.861 253.472V257.266C255.011 251.456 260.82 246.833 269.83 246.833C282.872 246.833 295.676 257.147 295.676 275.761V275.998C295.676 294.493 282.99 304.926 269.83 304.926C260.583 304.926 254.774 300.302 250.861 295.085V314.766C250.861 318.323 248.016 321.168 244.459 321.168C241.021 321.168 238.175 318.323 238.175 314.885V314.766V253.472V253.472ZM282.872 275.998V275.761C282.872 264.972 275.64 257.977 266.985 257.977C258.33 257.977 250.743 265.209 250.743 275.761V275.998C250.743 286.668 258.33 293.781 266.985 293.781C275.64 293.781 282.872 287.024 282.872 275.998Z" fill="white"/>
<path d="M300.656 253.472C300.537 250.034 303.382 247.189 306.821 247.07H306.939C310.496 247.07 313.341 249.915 313.341 253.472V256.555C313.934 251.812 321.759 247.07 327.331 247.07C330.532 246.833 333.378 249.204 333.615 252.405C333.615 252.761 333.615 252.998 333.615 253.354C333.615 256.436 331.481 259.044 328.517 259.519C319.388 261.06 313.223 269.003 313.223 280.029V298.405C313.223 301.962 310.377 304.689 306.821 304.689C303.382 304.689 300.537 301.962 300.537 298.524C300.537 298.524 300.537 298.524 300.537 298.405L300.656 253.472Z" fill="white"/>
<path d="M338.715 253.591C338.596 250.152 341.441 247.307 344.88 247.188H344.998C348.555 247.188 351.4 250.034 351.4 253.591V298.524C351.4 302.081 348.555 304.807 344.998 304.807C341.441 304.807 338.715 301.962 338.715 298.524V253.591Z" fill="white"/>
<path d="M357.917 253.59C357.799 250.152 360.644 247.307 364.082 247.188H364.201C367.758 247.188 370.603 250.034 370.603 253.59V256.199C374.397 250.271 381.036 246.833 388.031 247.07C400.598 247.07 407.83 255.487 407.83 268.41V298.405C407.949 301.843 405.222 304.57 401.784 304.689C401.665 304.689 401.665 304.689 401.547 304.689C398.108 304.807 395.263 301.962 395.144 298.524V298.405V272.322C395.144 263.668 390.876 258.688 383.17 258.688C375.82 258.688 370.603 263.905 370.603 272.56V298.524C370.603 302.08 367.758 304.926 364.201 304.926C360.644 304.926 357.799 302.08 357.799 298.524L357.917 253.59Z" fill="white"/>
<path d="M464.027 246.951C460.471 246.951 457.625 249.797 457.625 253.354V257.147C453.476 251.338 447.666 246.714 438.656 246.714C425.615 246.714 412.811 257.029 412.811 275.642V275.88C412.811 294.375 425.496 304.808 438.656 304.808C447.904 304.808 453.713 300.184 457.625 295.086C457.033 305.163 450.868 310.38 440.079 310.38C434.151 310.38 428.223 308.957 423.007 305.993C422.295 305.637 421.584 305.519 420.754 305.519C417.79 305.519 415.419 307.772 415.3 310.735C415.3 312.988 416.723 315.122 418.857 315.833C425.615 319.153 432.965 320.813 440.434 320.813C450.512 320.813 458.337 318.442 463.316 313.344C467.94 308.72 470.43 301.725 470.43 292.359V253.472C470.548 249.915 467.703 247.07 464.146 246.951C464.146 246.951 464.027 246.951 464.027 246.951ZM441.62 293.782C432.847 293.782 425.733 286.905 425.733 275.88V275.642C425.733 264.854 432.965 257.859 441.62 257.859C450.275 257.859 457.862 265.091 457.862 275.642V275.88C457.981 286.55 450.393 293.782 441.62 293.782Z" fill="white"/>
<path d="M351.517 231.776C351.517 235.333 348.672 238.178 345.115 238.178C341.558 238.178 338.713 235.333 338.713 231.776C338.713 228.219 341.558 225.374 345.115 225.374C348.553 225.255 351.399 228.101 351.517 231.539C351.517 231.657 351.517 231.657 351.517 231.776Z" fill="white"/>
<path d="M485.013 260.348C481.456 260.348 478.492 257.385 478.492 253.828C478.492 250.271 481.456 247.307 485.013 247.307C488.57 247.307 491.534 250.271 491.534 253.828C491.534 257.385 488.57 260.348 485.013 260.348ZM485.013 248.256C481.93 248.256 479.441 250.745 479.441 253.828C479.441 256.91 481.93 259.4 485.013 259.4C488.095 259.4 490.585 256.91 490.585 253.828C490.585 250.745 488.214 248.256 485.131 248.256H485.013ZM486.791 257.503L484.894 254.539H483.59V257.503H482.523V250.034H485.606C486.91 249.915 487.977 250.982 488.095 252.287C488.095 253.354 487.265 254.302 486.198 254.539L488.214 257.503H486.791ZM485.487 250.982H483.59V253.591H485.606C486.317 253.591 486.91 252.998 486.91 252.287C486.91 251.575 486.317 250.982 485.487 250.982Z" fill="white"/>
<path d="M159.463 312.632C167.288 303.385 172.03 291.766 172.86 279.673Z" fill="white"/>
<path d="M162.547 301.014C148.439 319.864 118.088 313.462 98.7633 314.411C98.7633 314.411 95.3251 314.648 91.887 315.122C91.887 315.122 93.1911 314.529 94.8509 313.936C108.485 309.194 114.887 308.246 123.186 303.978C138.717 296.034 154.248 278.606 157.331 260.586C151.403 277.895 133.382 292.833 117.021 298.88C105.758 303.029 85.4849 307.06 85.4849 307.06L84.655 306.586C70.9023 299.828 70.428 269.952 95.5623 260.348C106.588 256.08 117.021 258.451 128.996 255.606C141.681 252.642 156.382 243.158 162.31 230.709C168.949 250.745 177.011 281.807 162.547 301.014Z" fill="#6DB33F"/>
<path d="M84.7726 318.204C83.1128 320.338 80.0303 320.576 77.8963 318.916C75.7623 317.256 75.5251 314.173 77.185 312.039C78.8448 309.905 81.9273 309.668 84.0613 311.328C86.0768 312.988 86.4324 316.07 84.7726 318.204Z" fill="#6DB33F"/>
</svg>
